# xmcd
#
# Track frame offsets:
#	150
#	23411
#	45090
#	61258
#	85657
#	95754
#	107942
#	132624
#	145003
#	158656
#	180521
#	203590
#	230162
#	251393
#	271454
#	303823
#	318507
#	328794
#
# Disc length: 4451 seconds
#
# Revision: 0
# Processed by: cddbd v1.5.1PL2 Copyright (c) Steve Scherf et al.
# Submitted via: audiograbber 1.82.02
#
DISCID=eb116112
DTITLE=Romantic Collection - Romantic Collection - Gypsy
DYEAR=1900
DGENRE=Gypsy
TTITLE0=O Lopez - Lucia
TTITLE1=Ricao - El Gitano
TTITLE2=Romafolk - Gypsy Lament
TTITLE3=Govi - Gypsy Heaven
TTITLE4=G. Bregovic - La Nuit
TTITLE5=A. Maya - Solea
TTITLE6=Taraf De Haidouks - Old Man's Song
TTITLE7=Gypsy Kinks and Ricao - Amor-Amor
TTITLE8=P. Ibanez - Maria-Jesus
TTITLE9=Armik - Gypsy Flame
TTITLE10=Marius - Duba Duba
TTITLE11=Wilie and Lobo - Rockin' Gypsies
TTITLE12=T. Lordache - Old Gypsy Horo
TTITLE13=Novamenco - Gypsy Fusion
TTITLE14=Tarafs - Tot Taraful
TTITLE15=Romane Gitare - Oh, Roma
TTITLE16=C. Villalobos - Lonely Gypsy
TTITLE17=Basia's Band - Finale
EXTD=
EXTT0=
EXTT1=
EXTT2=
EXTT3=
EXTT4=
EXTT5=
EXTT6=
EXTT7=
EXTT8=
EXTT9=
EXTT10=
EXTT11=
EXTT12=
EXTT13=
EXTT14=
EXTT15=
EXTT16=
EXTT17=
PLAYORDER=
